<svg width="623" height="188" viewBox="0 0 623 188" fill="none" xmlns="http://www.w3.org/2000/svg">
<rect x="214.896" y="152.248" width="407.603" height="29.6749" rx="9.5" fill="#E30000" stroke="black"/>
<g filter="url(#filter0_i_41_218)">
<path d="M160.848 36.2654C164.819 32.8455 170.893 32.8693 174.799 36.32L242.848 96.4256C246.971 100.067 247.187 106.183 243.333 110.111L174.562 180.212C170.767 184.08 164.415 184.406 160.236 180.947L148.383 171.135C144.092 167.583 143.712 161.393 147.538 157.361L191.154 111.392C194.921 107.422 194.619 101.345 190.478 97.7602L148.359 61.3007C143.916 57.4548 143.943 50.8221 148.418 46.9689L160.848 36.2654Z" fill="white"/>
</g>
<rect x="256.699" y="27.1891" width="54.8009" height="105.968" fill="#E30000"/>
<path d="M283.686 55.0102L312.461 27.1891L378.799 92.2571L351.053 120.143L283.686 55.0102Z" fill="#E30000"/>
<g filter="url(#filter1_i_41_218)">
<path d="M428.346 54.578L456.674 27.1891L523.463 92.6785L496.16 120.143L428.346 54.578Z" fill="white"/>
</g>
<path d="M386.01 27.6539L443.215 27.6539L351.745 120.143L323.037 92.3875L386.01 27.6539Z" fill="#E30000"/>
<g filter="url(#filter2_i_41_218)">
<path d="M532.146 27.3754L588.255 27.3754L496.419 120.143L468.242 92.9003L532.146 27.3754Z" fill="white"/>
</g>
<g filter="url(#filter3_i_41_218)">
<path d="M396.105 86.6798L445.234 38.3436L456.194 81.5674V134.087H396.105V110.383V86.6798Z" fill="white"/>
</g>
<g filter="url(#filter4_i_41_218)">
<rect x="531.665" y="27.1891" width="58.6466" height="107.827" fill="white"/>
</g>
<defs>
<filter id="filter0_i_41_218" x="144.899" y="33.7161" width="101.188" height="153.626" filterUnits="userSpaceOnUse" color-interpolation-filters="sRGB">
<feFlood flood-opacity="0" result="BackgroundImageFix"/>
<feBlend mode="normal" in="SourceGraphic" in2="BackgroundImageFix" result="shape"/>
<feColorMatrix in="SourceAlpha" type="matrix" values="0 0 0 0 0 0 0 0 0 0 0 0 0 0 0 0 0 0 127 0" result="hardAlpha"/>
<feOffset dy="4"/>
<feGaussianBlur stdDeviation="2"/>
<feComposite in2="hardAlpha" operator="arithmetic" k2="-1" k3="1"/>
<feColorMatrix type="matrix" values="0 0 0 0 0 0 0 0 0 0 0 0 0 0 0 0 0 0 0.25 0"/>
<feBlend mode="normal" in2="shape" result="effect1_innerShadow_41_218"/>
</filter>
<filter id="filter1_i_41_218" x="428.346" y="27.1891" width="95.1169" height="96.9543" filterUnits="userSpaceOnUse" color-interpolation-filters="sRGB">
<feFlood flood-opacity="0" result="BackgroundImageFix"/>
<feBlend mode="normal" in="SourceGraphic" in2="BackgroundImageFix" result="shape"/>
<feColorMatrix in="SourceAlpha" type="matrix" values="0 0 0 0 0 0 0 0 0 0 0 0 0 0 0 0 0 0 127 0" result="hardAlpha"/>
<feOffset dy="4"/>
<feGaussianBlur stdDeviation="2"/>
<feComposite in2="hardAlpha" operator="arithmetic" k2="-1" k3="1"/>
<feColorMatrix type="matrix" values="0 0 0 0 0 0 0 0 0 0 0 0 0 0 0 0 0 0 0.25 0"/>
<feBlend mode="normal" in2="shape" result="effect1_innerShadow_41_218"/>
</filter>
<filter id="filter2_i_41_218" x="468.242" y="27.3754" width="120.013" height="96.768" filterUnits="userSpaceOnUse" color-interpolation-filters="sRGB">
<feFlood flood-opacity="0" result="BackgroundImageFix"/>
<feBlend mode="normal" in="SourceGraphic" in2="BackgroundImageFix" result="shape"/>
<feColorMatrix in="SourceAlpha" type="matrix" values="0 0 0 0 0 0 0 0 0 0 0 0 0 0 0 0 0 0 127 0" result="hardAlpha"/>
<feOffset dy="4"/>
<feGaussianBlur stdDeviation="2"/>
<feComposite in2="hardAlpha" operator="arithmetic" k2="-1" k3="1"/>
<feColorMatrix type="matrix" values="0 0 0 0 0 0 0 0 0 0 0 0 0 0 0 0 0 0 0.25 0"/>
<feBlend mode="normal" in2="shape" result="effect1_innerShadow_41_218"/>
</filter>
<filter id="filter3_i_41_218" x="396.105" y="38.3436" width="60.0886" height="99.7429" filterUnits="userSpaceOnUse" color-interpolation-filters="sRGB">
<feFlood flood-opacity="0" result="BackgroundImageFix"/>
<feBlend mode="normal" in="SourceGraphic" in2="BackgroundImageFix" result="shape"/>
<feColorMatrix in="SourceAlpha" type="matrix" values="0 0 0 0 0 0 0 0 0 0 0 0 0 0 0 0 0 0 127 0" result="hardAlpha"/>
<feOffset dy="4"/>
<feGaussianBlur stdDeviation="2"/>
<feComposite in2="hardAlpha" operator="arithmetic" k2="-1" k3="1"/>
<feColorMatrix type="matrix" values="0 0 0 0 0 0 0 0 0 0 0 0 0 0 0 0 0 0 0.25 0"/>
<feBlend mode="normal" in2="shape" result="effect1_innerShadow_41_218"/>
</filter>
<filter id="filter4_i_41_218" x="531.665" y="27.1891" width="58.6465" height="111.827" filterUnits="userSpaceOnUse" color-interpolation-filters="sRGB">
<feFlood flood-opacity="0" result="BackgroundImageFix"/>
<feBlend mode="normal" in="SourceGraphic" in2="BackgroundImageFix" result="shape"/>
<feColorMatrix in="SourceAlpha" type="matrix" values="0 0 0 0 0 0 0 0 0 0 0 0 0 0 0 0 0 0 127 0" result="hardAlpha"/>
<feOffset dy="4"/>
<feGaussianBlur stdDeviation="2"/>
<feComposite in2="hardAlpha" operator="arithmetic" k2="-1" k3="1"/>
<feColorMatrix type="matrix" values="0 0 0 0 0 0 0 0 0 0 0 0 0 0 0 0 0 0 0.25 0"/>
<feBlend mode="normal" in2="shape" result="effect1_innerShadow_41_218"/>
</filter>
</defs>
</svg>
