<svg width="686" height="216" viewBox="0 0 686 216" fill="none" xmlns="http://www.w3.org/2000/svg">
<rect x="72" y="5" width="614" height="211" fill="black"/>
<path d="M402.481 34.0275L477.369 34.0276L357.624 147.834L320.042 113.681L402.481 34.0275Z" fill="#E30000"/>
<path d="M593.79 33.6847L667.243 33.6847L547.02 147.834L510.133 114.312L593.79 33.6847Z" fill="white"/>
<path d="M457.904 67.1572L494.989 33.4558L582.423 114.039L546.68 147.834L457.904 67.1572Z" fill="white"/>
<path d="M268.527 67.689L306.197 33.4557L393.041 113.521L356.718 147.834L268.527 67.689Z" fill="#E30000"/>
<rect x="233.198" y="33.4558" width="71.7408" height="130.391" fill="#E30000"/>
<rect x="593.161" y="33.4558" width="76.7753" height="132.679" fill="white"/>
<path d="M416.196 135.824V106.877L479.745 48.1095L493.859 100.433V164.491H416.196V135.824Z" fill="white" stroke="white"/>
<path d="M110.42 8.82255C114.442 5.46085 120.57 5.48529 124.51 8.87875L225.896 96.1874C230.064 99.7766 230.277 105.814 226.372 109.695L127.479 208.005C123.634 211.828 117.204 212.153 112.981 208.738L90.2801 190.384C85.9494 186.883 85.5735 180.78 89.4432 176.799L153.917 110.466C157.729 106.545 157.429 100.55 153.246 97.0176L87.8325 41.7807C83.3347 37.9826 83.3793 31.4227 87.9289 27.6203L110.42 8.82255Z" fill="white"/>
<rect x="234.232" y="168.861" width="436.77" height="31.2344" rx="10" fill="#E30000"/>
</svg>
