<svg width="622" height="591" viewBox="0 0 622 591" fill="none" xmlns="http://www.w3.org/2000/svg">
<ellipse cx="311" cy="295.5" rx="311" ry="295.5" fill="black"/>
<path d="M265.331 152.567L334.385 152.567L223.967 281.674L189.313 242.929L265.331 152.567Z" fill="#E30000"/>
<path d="M441.739 152.178L509.472 152.178L398.612 281.674L364.598 243.645L441.739 152.178Z" fill="white"/>
<path d="M316.437 190.15L350.634 151.918L431.258 243.335L398.299 281.674L316.437 190.15Z" fill="white"/>
<path d="M141.81 190.754L176.546 151.918L256.626 242.747L223.132 281.674L141.81 190.754Z" fill="#E30000"/>
<rect x="108.805" y="152.288" width="66.1895" height="147.246" fill="#E30000"/>
<rect x="441.566" y="152.288" width="70.723" height="150.271" fill="white"/>
<path d="M277.452 235.135L336.759 167.417L349.988 227.973V301.551H277.452V268.343V235.135Z" fill="white"/>
<rect x="64.3761" y="320.713" width="493.248" height="43.3669" rx="10" fill="white"/>
<path d="M315.882 501.53C309.042 501.53 303.557 496.048 303.557 489.214L303.557 409.289C303.557 402.214 309.42 396.448 316.498 396.563C323.256 396.672 328.62 402.121 328.62 408.877L328.62 488.802C328.62 495.797 322.883 501.53 315.882 501.53Z" fill="#E30000"/>
<path d="M274.422 490.078C269.799 492.813 262.963 492.582 258.731 489.547L212.591 456.47C208.132 453.273 208.177 448.143 212.691 444.988L264.951 408.469C269.395 405.363 276.544 405.314 281.078 408.357L284.861 410.897C289.52 414.025 289.656 419.228 285.164 422.472L253.693 445.195C249.272 448.388 249.324 453.491 253.809 456.642L280.134 475.132C284.939 478.507 284.605 484.054 279.411 487.127L274.422 490.078Z" fill="white"/>
<path d="M348.438 407.957C352.856 404.895 359.7 404.635 364.144 407.361L412.093 436.777C416.768 439.645 417.089 444.762 412.81 448.228L362.808 488.73C358.596 492.141 351.468 492.701 346.727 489.992L342.914 487.814C338.039 485.028 337.532 479.849 341.786 476.295L371.887 451.144C376.073 447.647 375.658 442.563 370.957 439.742L343.666 423.365C338.635 420.346 338.569 414.798 343.524 411.363L348.438 407.957Z" fill="white"/>
</svg>
